<?xml version="1.0" encoding="utf-8"?><svg viewBox="0 0 102 50" xmlns="http://www.w3.org/2000/svg" xmlns:xlink="http://www.w3.org/1999/xlink"><style>:root>svg{display:none}:root>svg:target{display:block}</style><svg fill="none" viewBox="0 0 102 24" id="arrow-left" xmlns="http://www.w3.org/2000/svg"><path d="M.94 10.94a1.5 1.5 0 000 2.12l9.545 9.547a1.5 1.5 0 102.122-2.122L4.12 12l8.486-8.485a1.5 1.5 0 10-2.122-2.122L.94 10.94zM102 10.5H2v3h100v-3z" fill="currentColor"/></svg><svg fill="none" viewBox="0 0 102 24" id="arrow-right" xmlns="http://www.w3.org/2000/svg"><path d="M101.061 13.06a1.502 1.502 0 000-2.12l-9.546-9.547a1.5 1.5 0 10-2.122 2.122L97.88 12l-8.486 8.485a1.5 1.5 0 102.122 2.122l9.546-9.546zM0 13.5h100v-3H0v3z" fill="currentColor"/></svg><svg fill="none" viewBox="0 0 29 28" id="facebook" xmlns="http://www.w3.org/2000/svg"><g clip-path="url(#ca)"><path fill-rule="evenodd" clip-rule="evenodd" d="M28.795 26.37c0 .845-.682 1.538-1.537 1.538h-7.113V17.1h3.626l.542-4.213h-4.168v-2.685c0-1.224.335-2.047 2.09-2.047h2.23v-3.78c-.39-.054-1.711-.162-3.248-.162-3.216 0-5.413 1.96-5.413 5.566v3.108h-3.638V17.1h3.638v10.808H2.434A1.536 1.536 0 01.898 26.37V1.538A1.542 1.542 0 012.435 0h24.823c.844 0 1.537.682 1.537 1.538V26.37zm-12.991 1.538h4.34-4.34z" fill="#fff"/></g><defs><clipPath id="ca"><path fill="#fff" transform="translate(.897)" d="M0 0h27.897v27.897H0z"/></clipPath></defs></svg><svg fill="none" viewBox="0 0 42 50" id="logo" xmlns="http://www.w3.org/2000/svg"><g clip-path="url(#da)" fill="#76FF6A"><path d="M39.846 32.484c.183.076.365.114.547.114.291 0 .546-.076.728-.267a1.63 1.63 0 00.401-.8c.073-.343.146-.763.146-1.22V15.136c0-.457-.037-.915-.146-1.372a5.33 5.33 0 00-.4-1.297 4.643 4.643 0 00-.73-1.143 5.063 5.063 0 00-1.055-.915l-1.13-.687c-.4-.267-.764-.38-1.056-.38-.291 0-.546.075-.728.266-.182.19-.328.457-.4.8a5.854 5.854 0 00-.147 1.22v15.213c0 .458.037.915.146 1.373.073.457.219.877.4 1.296.183.42.438.8.73 1.144.254.305.546.572.873.8l-1.82-1.067L10.09 42.549l2.258 1.335 5.135-2.364 5.464 3.24-4.007 3.05 2.331 1.373 20.397-15.632-1.822-1.067zM24.55 43.426l-4.99-2.974 16.5-7.701 1.82 1.067-13.33 9.608zm14.788-13.573l-1.13-.686a1.173 1.173 0 01-.51-.61 1.72 1.72 0 01-.145-.724V12.582c0-.229.036-.42.146-.572.109-.114.255-.114.51.038l1.129.686c.218.153.4.344.51.572.109.267.145.496.145.725v15.212c0 .229-.036.42-.145.572-.146.19-.292.153-.51.038z"/><path d="M33.399 28.404c.328 0 .546-.076.765-.267.182-.19.328-.457.437-.8.11-.343.145-.763.145-1.22V10.752c0-.458-.036-.915-.145-1.373-.11-.457-.219-.877-.437-1.296-.182-.42-.437-.8-.765-1.144-.328-.343-.692-.686-1.13-.915l-1.201-.686a2.932 2.932 0 00-1.13-.42c-.327 0-.582.077-.764.267-.182.19-.328.458-.437.8-.11.344-.146.763-.146 1.22v15.328c0 .457.037.915.146 1.372.11.458.218.915.437 1.297.182.42.437.8.765 1.182.218.228.473.457.728.648l-.4-.229-8.341 4.957-.073-5.529 3.715-2.211 2.404-17.996V3.546L22.217 0v2.478l3.934 2.402-2.84 17.767-6.193 3.66.037-.038 1.202-.8c.437-.305.837-.649 1.129-1.068a5.28 5.28 0 00.765-1.296c.182-.458.327-.953.437-1.487.109-.534.145-1.03.145-1.563V2.82c0-.495-.036-.953-.145-1.372-.11-.381-.219-.686-.437-.915-.183-.229-.438-.305-.765-.305-.328 0-.692.152-1.13.457l-1.201.8c-.437.306-.838.65-1.13 1.068a5.28 5.28 0 00-.764 1.297 8.767 8.767 0 00-.437 1.487 7.57 7.57 0 00-.146 1.563v17.271c0 .534.036.953.146 1.373.109.381.218.686.437.915.182.229.437.305.765.305.218 0 .51-.076.8-.267L9.87 30.654l1.166-.8a5.117 5.117 0 001.129-1.068c.328-.42.546-.84.765-1.297.182-.457.328-.953.437-1.487.073-.533.145-1.029.145-1.563V7.244c0-.496-.036-.953-.145-1.372-.073-.382-.219-.687-.437-.916-.182-.228-.437-.305-.765-.305-.291 0-.692.153-1.13.458l-1.165.8a5.118 5.118 0 00-1.129 1.068c-.327.42-.546.839-.765 1.296a6.327 6.327 0 00-.4 1.487c-.073.534-.146 1.03-.146 1.564v17.233c0 .534.037.953.146 1.373.073.38.218.686.4.915.183.228.438.305.765.305.219 0 .437-.077.729-.23l-7.212 4.233c.037-.038.11-.076.146-.115l1.093-.762a5.115 5.115 0 001.129-1.068 7.77 7.77 0 00.764-1.334c.183-.458.328-.991.438-1.487.072-.534.145-1.068.145-1.563v-9.265c0-.534-.036-.991-.145-1.373-.11-.419-.219-.724-.438-.915-.182-.228-.437-.305-.764-.305-.292 0-.692.153-1.13.458l-1.784 1.22v-5.185l3.97-2.707V8.007L0 11.896v10.637l3.533-2.402c.255-.19.437-.19.546-.076.11.152.146.343.146.686v9.265c0 .305-.036.572-.146.838a1.618 1.618 0 01-.546.687l-1.093.762c-.255.19-.437.19-.546.038-.11-.152-.146-.38-.146-.648V24.86L0 26.04v6.825c0 .534.036.991.146 1.373.073.42.218.724.4.915.182.229.437.305.765.305.219 0 .51-.076.801-.267L0 36.487l2.295 1.335 16.499-9.799.218 5.414-12.019 7.13L9.288 41.9l23.273-13.84c.292.267.583.343.838.343zm-24.075-.419c-.11-.152-.146-.343-.146-.648V10.104c0-.267.037-.572.146-.84a1.62 1.62 0 01.546-.685l1.166-.801c.255-.153.4-.19.51-.038.109.152.145.343.145.648V25.62c0 .267-.036.572-.145.839-.11.267-.292.496-.51.648l-1.166.8c-.255.191-.437.23-.546.077zm7.284-4.346c-.109-.153-.145-.344-.145-.649V5.72c0-.267.036-.572.145-.839.11-.267.292-.495.547-.686l1.202-.8c.255-.153.437-.191.546-.039.11.153.146.343.146.648v17.272c0 .267-.037.572-.146.838-.11.267-.291.496-.546.649l-1.202.8c-.255.19-.437.23-.547.077zm14.46 1.258a1.244 1.244 0 01-.546-.61 1.718 1.718 0 01-.146-.725V8.235c0-.267.036-.457.146-.572.109-.114.291-.114.546.039l1.202.686c.255.152.4.343.51.61.109.267.145.496.145.762v15.327c0 .267-.036.42-.145.572-.11.115-.292.115-.51-.038l-1.202-.724z"/></g><defs><clipPath id="da"><path fill="#fff" d="M0 0h42v50H0z"/></clipPath></defs></svg><svg fill="none" viewBox="0 0 29 28" id="tiktok" xmlns="http://www.w3.org/2000/svg"><g clip-path="url(#ea)"><path d="M25.22 0H4.152A3.366 3.366 0 00.795 3.37v21.273c0 1.743 1.505 3.254 3.357 3.254h21.183a3.366 3.366 0 003.357-3.37V3.37C28.577 1.51 27.072 0 25.22 0zm-2.547 12.205h-.463c-1.62 0-3.241-.813-4.167-2.208v7.671c0 3.139-2.547 5.696-5.672 5.696-3.126 0-5.672-2.557-5.672-5.696 0-3.138 2.546-5.695 5.672-5.695h.347v2.79h-.347c-1.621 0-2.894 1.278-2.894 2.905 0 1.628 1.273 2.906 2.894 2.906 1.62 0 3.01-1.278 3.01-2.906V4.65h2.662c.231 2.44 2.2 4.3 4.514 4.417l.116 3.138z" fill="#fff"/></g><defs><clipPath id="ea"><path fill="#fff" transform="translate(.795)" d="M0 0h27.897v27.897H0z"/></clipPath></defs></svg><svg fill="none" viewBox="0 0 28 28" id="vk" xmlns="http://www.w3.org/2000/svg"><g clip-path="url(#fa)"><path fill-rule="evenodd" clip-rule="evenodd" d="M9.671 0h8.555c7.812 0 9.671 1.86 9.671 9.671v8.555c0 7.812-1.86 9.671-9.67 9.671H9.67c-7.81 0-9.67-1.86-9.67-9.67V9.67C0 1.86 1.86 0 9.671 0zm13.173 9.611c.13-.431 0-.748-.615-.748h-2.034c-.517 0-.756.274-.885.576 0 0-1.035 2.521-2.5 4.159-.474.474-.69.625-.948.625-.13 0-.317-.151-.317-.582V9.61c0-.517-.15-.748-.581-.748h-3.197c-.323 0-.517.24-.517.468 0 .49.732.603.808 1.982v2.996c0 .657-.119.776-.377.776-.69 0-2.367-2.533-3.362-5.43-.195-.564-.39-.792-.91-.792H5.373c-.58 0-.697.274-.697.576 0 .538.69 3.21 3.21 6.745 1.682 2.414 4.05 3.722 6.205 3.722 1.293 0 1.453-.29 1.453-.791V17.29c0-.582.123-.698.532-.698.302 0 .82.151 2.026 1.315 1.38 1.38 1.606 1.998 2.382 1.998h2.035c.58 0 .871-.29.704-.864-.184-.572-.842-1.4-1.716-2.384-.474-.56-1.185-1.164-1.4-1.465-.303-.388-.216-.56 0-.906 0 0 2.477-3.49 2.736-4.676z" fill="#fff"/></g><defs><clipPath id="fa"><path fill="#fff" d="M0 0h27.897v27.897H0z"/></clipPath></defs></svg><svg fill="none" viewBox="0 0 29 25" id="youtube" xmlns="http://www.w3.org/2000/svg"><path fill-rule="evenodd" clip-rule="evenodd" d="M22.583 4.473a3.039 3.039 0 012.115 2.16c.514 1.917.494 5.913.494 5.913s0 3.976-.494 5.893a3.04 3.04 0 01-2.115 2.16c-1.878.504-9.39.504-9.39.504s-7.493 0-9.391-.525a3.039 3.039 0 01-2.115-2.16c-.495-1.896-.495-5.892-.495-5.892s0-3.976.495-5.893c.276-1.05 1.107-1.897 2.115-2.18 1.878-.504 9.39-.504 9.39-.504s7.513 0 9.39.524zM10.8 8.853l6.247 3.673-6.247 3.673V8.853z" fill="#fff"/></svg></svg>